<svg width="120" height="22" viewBox="0 0 120 22" fill="none" xmlns="http://www.w3.org/2000/svg">
<g clip-path="url(#clip0_1847_25)">
<path d="M0 0H22.5V22H0V0ZM24.375 0H46.875V22H24.375V0ZM48.75 0H71.25V22H48.75V0ZM73.125 0H95.625V22H73.125V0Z" fill="#00B67A"/>
<path d="M108.75 0H120V22H108.75V0Z" fill="#DCDCE6"/>
<path d="M97.5 0H108.75V22H97.5V0Z" fill="#00B67A"/>
<path d="M11.25 14.827L14.6719 13.9791L16.1016 18.2874L11.25 14.827ZM19.125 9.25824H13.1016L11.25 3.7124L9.39844 9.25824H3.375L8.25 12.6957L6.39844 18.2416L11.2734 14.8041L14.2734 12.6957L19.125 9.25824ZM35.625 14.827L39.0469 13.9791L40.4766 18.2874L35.625 14.827ZM43.5 9.25824H37.4766L35.625 3.7124L33.7734 9.25824H27.75L32.625 12.6957L30.7734 18.2416L35.6484 14.8041L38.6484 12.6957L43.5 9.25824ZM60 14.827L63.4219 13.9791L64.8516 18.2874L60 14.827ZM67.875 9.25824H61.8516L60 3.7124L58.1484 9.25824H52.125L57 12.6957L55.1484 18.2416L60.0234 14.8041L63.0234 12.6957L67.875 9.25824ZM84.375 14.827L87.7969 13.9791L89.2266 18.2874L84.375 14.827ZM92.25 9.25824H86.2266L84.375 3.7124L82.5234 9.25824H76.5L81.375 12.6957L79.5234 18.2416L84.3984 14.8041L87.3984 12.6957L92.25 9.25824ZM108.75 14.827L112.172 13.9791L113.602 18.2874L108.75 14.827ZM116.625 9.25824H110.602L108.75 3.7124L106.898 9.25824H100.875L105.75 12.6957L103.898 18.2416L108.773 14.8041L111.773 12.6957L116.625 9.25824Z" fill="white"/>
</g>
<defs>
<clipPath id="clip0_1847_25">
<rect width="120" height="22" fill="white"/>
</clipPath>
</defs>
</svg>
