<svg width="96" height="23" viewBox="0 0 96 23" fill="none" xmlns="http://www.w3.org/2000/svg">
<g clip-path="url(#clip0_1847_19)">
<path d="M25.1963 8.20752H34.8647V9.92536H31.0559V19.8507H29.005V9.92536H25.1963V8.20752ZM34.474 11.3569H36.2319V12.9793C36.3296 12.693 36.4272 12.5021 36.5249 12.3113C36.7202 12.1204 36.9155 11.9295 37.1108 11.7386C37.3062 11.5478 37.5991 11.3569 37.8921 11.2615C38.1851 11.166 38.4781 11.0706 38.7711 11.0706H39.2594C39.357 11.0706 39.4547 11.0706 39.5523 11.0706V12.8839L39.1617 12.7884C38.9664 12.7884 38.8687 12.7884 38.7711 12.7884C38.4781 12.7884 38.1851 12.8839 37.8921 12.9793C37.5991 13.0747 37.3062 13.2656 37.1108 13.5519C36.9155 13.8382 36.7202 14.1245 36.6225 14.4108C36.5249 14.7926 36.4272 15.2698 36.4272 15.6515V19.6598H34.474V11.3569ZM48.4394 19.8507H46.5839V18.7054C46.2909 19.1826 45.9979 19.4689 45.5096 19.7552C45.119 20.0415 44.6307 20.137 44.0447 20.137C43.1658 20.2324 42.1892 19.9461 41.6032 19.2781C41.0172 18.61 40.7243 17.6557 40.8219 16.7967V11.3569H42.7751V16.6059C42.6775 17.1785 42.8728 17.7511 43.2634 18.1328C43.5564 18.4191 44.0447 18.61 44.533 18.61C44.826 18.61 45.2166 18.5146 45.5096 18.4191C45.8026 18.3237 45.9979 18.1328 46.1932 17.942C46.3886 17.7511 46.4862 17.4648 46.5839 17.1785C46.6815 16.8922 46.6815 16.5104 46.6815 16.2241V11.3569H48.6347L48.4394 19.8507ZM51.6622 17.1785C51.6622 17.6557 51.9552 18.0374 52.3458 18.3237C52.7365 18.5146 53.2248 18.7054 53.7131 18.61C53.9084 18.61 54.1037 18.61 54.299 18.61C54.4944 18.61 54.6897 18.5146 54.9827 18.4191C55.178 18.3237 55.3733 18.2283 55.471 18.0374C55.5686 17.8465 55.6663 17.6557 55.6663 17.4648C55.6663 17.2739 55.5686 16.9876 55.3733 16.8922C55.178 16.7013 54.9827 16.6059 54.6897 16.5104C54.3967 16.415 54.1037 16.3196 53.8107 16.3196C53.5178 16.2241 53.1271 16.2241 52.8341 16.1287C52.5411 16.0332 52.1505 15.9378 51.7599 15.8424C51.3692 15.7469 51.0762 15.5561 50.7833 15.3652C50.4903 15.1743 50.295 14.9835 50.1973 14.6017C50.002 14.3154 49.9043 13.9337 50.002 13.5519C50.002 13.1702 50.0996 12.693 50.3926 12.4067C50.5879 12.1204 50.8809 11.8341 51.2716 11.6432C51.6622 11.4523 52.0529 11.3569 52.4435 11.2615C52.8341 11.166 53.2248 11.166 53.7131 11.166C54.1037 11.166 54.592 11.166 54.9827 11.2615C55.3733 11.3569 55.7639 11.4523 56.0569 11.7386C56.3499 11.9295 56.6429 12.2158 56.8382 12.5976C57.0335 12.9793 57.2288 13.361 57.2288 13.8382H55.2756C55.2756 13.4565 54.9827 13.0747 54.6897 12.9793C54.299 12.7884 53.9084 12.693 53.5178 12.7884H53.0295C52.8341 12.7884 52.6388 12.8839 52.5412 12.8839C52.3458 12.9793 52.2482 13.0747 52.1505 13.1702C52.0529 13.2656 51.9552 13.4565 51.9552 13.6474C51.9552 13.8382 52.0529 14.0291 52.1505 14.22C52.3458 14.4108 52.5411 14.5063 52.8341 14.6017C53.1271 14.6971 53.4201 14.7926 53.7131 14.7926L54.7873 14.9835C55.178 15.0789 55.471 15.1743 55.7639 15.2698C56.0569 15.3652 56.3499 15.5561 56.6429 15.7469C56.9359 15.9378 57.1312 16.2241 57.3265 16.415C57.5218 16.7013 57.6195 17.083 57.5218 17.4648C57.5218 17.942 57.4242 18.3237 57.1312 18.7054C56.9359 19.0872 56.5452 19.3735 56.2522 19.5644C55.8616 19.7552 55.471 19.9461 54.9827 20.0415C54.4944 20.0415 54.0061 20.0415 53.6154 20.0415C53.1271 20.0415 52.5412 19.9461 52.0528 19.8507C51.6622 19.7552 51.1739 19.5644 50.8809 19.2781C50.5879 18.9918 50.295 18.7054 50.0996 18.3237C49.9043 17.942 49.8067 17.5602 49.8067 17.083H51.6622V17.1785ZM58.0101 11.4523H59.475V8.87557H61.4282V11.4523H63.1861V12.7884H61.4282V17.3693C61.4282 17.5602 61.4282 17.7511 61.4282 17.8465C61.4282 17.942 61.4282 18.1328 61.5259 18.2283C61.6236 18.3237 61.7212 18.4191 61.8189 18.4191C62.0142 18.5146 62.1119 18.5146 62.3072 18.5146H62.6978C62.7955 18.5146 62.9908 18.5146 63.0885 18.4191V19.8507C62.8931 19.8507 62.6978 19.8507 62.5025 19.9461C62.3072 19.9461 62.1119 19.9461 61.9165 19.9461C61.5259 19.9461 61.1353 19.9461 60.7446 19.8507C60.4516 19.7552 60.2563 19.6598 60.061 19.4689C59.8657 19.2781 59.768 19.0872 59.6703 18.8009C59.5727 18.5146 59.5727 18.1328 59.5727 17.8465V12.8839H58.1078V11.4523H58.0101ZM64.4557 11.4523H66.2136V12.5976C66.4089 12.1204 66.7995 11.6432 67.3855 11.4523C67.8738 11.2615 68.4598 11.166 68.9481 11.166C69.534 11.166 70.2177 11.2615 70.706 11.5478C71.1943 11.7386 71.5849 12.1204 71.9755 12.5021C72.3662 12.8839 72.5615 13.4565 72.7568 13.9337C72.9521 14.5063 73.0498 15.0789 73.0498 15.6515C73.0498 16.2241 72.9521 16.7967 72.8545 17.2739C72.6592 17.7511 72.4638 18.2283 72.1709 18.7054C71.8779 19.0872 71.4872 19.4689 70.9989 19.6598C70.5106 19.9461 69.9247 20.0415 69.3387 20.0415C69.0457 20.0415 68.7527 20.0415 68.5574 20.0415C68.2644 20.0415 67.9715 19.9461 67.7761 19.8507C67.4832 19.7552 67.2878 19.5644 67.0925 19.3735C66.8972 19.1826 66.7019 18.9918 66.5066 18.8009V23.0001H64.5534L64.4557 11.4523ZM71.0966 15.7469C71.0966 15.3652 70.9989 14.9835 70.9013 14.6017C70.8036 14.22 70.6083 13.9337 70.413 13.6474C70.2177 13.361 69.9247 13.1702 69.6317 12.9793C69.3387 12.7884 68.9481 12.693 68.5574 12.693C67.8738 12.693 67.1902 12.9793 66.7019 13.5519C66.3112 14.22 66.0183 14.9835 66.1159 15.7469C66.1159 16.1287 66.1159 16.5104 66.3112 16.8922C66.4089 17.2739 66.6042 17.5602 66.7995 17.8465C66.9949 18.1328 67.2878 18.3237 67.5808 18.5146C67.8738 18.7054 68.2645 18.7054 68.6551 18.7054C69.0457 18.7054 69.4364 18.61 69.7294 18.4191C70.0223 18.2283 70.3153 18.0374 70.5106 17.7511C70.7059 17.4648 70.8036 17.1785 70.9013 16.7967C71.0966 16.5104 71.0966 16.1287 71.0966 15.7469ZM74.5147 8.20752H76.4679V9.92536H74.5147V8.20752ZM74.5147 11.4523H76.4679V19.9461H74.5147V11.4523ZM78.1281 8.20752H80.0813V19.9461H78.1281V8.20752ZM85.9409 20.137C85.2573 20.137 84.6714 20.0415 84.0854 19.7552C83.5971 19.5644 83.1088 19.1826 82.7182 18.8009C82.3275 18.4191 82.0345 17.942 81.8392 17.3693C81.6439 16.7967 81.5462 16.2241 81.5462 15.5561C81.5462 14.9835 81.6439 14.3154 81.8392 13.7428C82.0345 13.1702 82.3275 12.693 82.7182 12.3113C83.1088 11.9295 83.5971 11.5478 84.0854 11.3569C84.6714 11.166 85.355 11.0706 85.9409 11.0706C86.6246 11.0706 87.2105 11.166 87.7965 11.4523C88.2848 11.6432 88.7731 12.0249 89.1637 12.4067C89.5544 12.7884 89.8474 13.2656 90.0427 13.8382C90.238 14.4108 90.3357 14.9835 90.3357 15.6515C90.3357 16.2241 90.238 16.8922 90.0427 17.4648C89.8474 17.942 89.5544 18.5146 89.1637 18.8963C88.7731 19.2781 88.2848 19.6598 87.7965 19.8507C87.2105 20.0415 86.6246 20.2324 85.9409 20.137ZM85.9409 18.61C86.3316 18.61 86.7222 18.5146 87.0152 18.3237C87.3082 18.1328 87.6012 17.942 87.7965 17.6557C87.9918 17.3693 88.1871 17.083 88.2848 16.7013C88.4801 16.0332 88.4801 15.2698 88.2848 14.5063C88.1871 14.1245 88.0895 13.8382 87.7965 13.5519C87.6012 13.2656 87.3082 13.0747 87.0152 12.8839C86.7222 12.693 86.3316 12.5976 85.9409 12.5976C85.5503 12.5976 85.1597 12.693 84.8667 12.8839C84.5737 13.0747 84.2807 13.2656 84.0854 13.5519C83.8901 13.8382 83.6948 14.1245 83.6948 14.5063C83.4994 15.1743 83.4994 15.9378 83.6948 16.7013C83.7924 17.083 83.8901 17.3693 84.0854 17.6557C84.2807 17.942 84.5737 18.1328 84.8667 18.3237C85.1597 18.5146 85.5503 18.61 85.9409 18.61ZM90.9216 11.3569H92.3865V8.87557H94.3397V11.4523H95.9999V12.7884H94.2421V17.3693C94.2421 17.5602 94.2421 17.7511 94.2421 17.8465C94.2421 17.942 94.3397 18.1328 94.3397 18.2283C94.4374 18.3237 94.535 18.4191 94.6327 18.4191C94.828 18.5146 94.9257 18.5146 95.121 18.5146H95.5117C95.6093 18.5146 95.8046 18.5146 95.9023 18.4191V19.8507L95.3163 19.9461C95.121 19.9461 94.9257 19.9461 94.7304 19.9461C94.3397 19.9461 93.9491 19.9461 93.5584 19.8507C93.2655 19.7552 93.0701 19.6598 92.8748 19.4689C92.6795 19.2781 92.5818 19.0872 92.4842 18.8009C92.3865 18.5146 92.3865 18.1328 92.3865 17.8465V12.8839H90.9216V11.3569Z" fill="black"/>
<path d="M22.9502 8.20747H14.1607L11.5239 0L8.78942 8.20747H0L7.1292 13.2656L4.39471 21.3776L11.5239 16.3195L18.5554 21.3776L15.821 13.1701L22.9502 8.20747Z" fill="#00B67A"/>
<path d="M16.5046 15.0789L15.9186 13.2656L11.5239 16.415L16.5046 15.0789Z" fill="#005128"/>
</g>
<defs>
<clipPath id="clip0_1847_19">
<rect width="96" height="23" fill="white"/>
</clipPath>
</defs>
</svg>
