<svg width="104" height="104" viewBox="0 0 104 104" fill="none" xmlns="http://www.w3.org/2000/svg">
<path d="M97.2562 67.6405C99.0031 62.7655 99.9375 57.5249 99.9375 52.0405C99.9375 25.5936 78.4469 4.10301 52 4.10301C25.5531 4.02176 4.0625 25.5124 4.0625 51.9593C4.0625 78.4061 25.5531 99.8968 52 99.8968C58.0531 99.8968 63.7813 98.7999 69.1031 96.7686C68.8188 96.3218 68.6562 95.9155 68.4531 95.3874C63.375 97.3374 57.8094 98.4343 52 98.4343C26.4469 98.4343 5.60625 77.5936 5.60625 52.0405C5.60625 26.4061 26.4469 5.56551 52 5.56551C77.5531 5.56551 98.3937 26.4061 98.3937 51.9593C98.3937 57.1999 97.5406 62.1561 95.9156 66.828C95.55 66.7468 95.2656 66.6655 94.9 66.6655C92.8688 66.6655 91.2438 68.3311 91.2438 70.3218C91.2438 72.2718 92.9094 73.978 94.9 73.978C96.9313 73.978 98.5563 72.3124 98.5563 70.3218C98.5563 69.2249 98.0281 68.2905 97.2562 67.6405Z" fill="black"/>
<path d="M66.8688 62.7656C64.8375 62.7656 63.1312 61.1 63.1312 59.0281C63.1312 56.9562 64.7969 55.2906 66.8688 55.2906C68.9406 55.2906 70.6063 56.9562 70.6063 59.0281C70.6063 61.1 68.9 62.7656 66.8688 62.7656ZM58.9875 60.0437C58.9875 60.6125 58.4594 61.1406 57.8906 61.1406H47.5312C46.9625 61.1406 46.4344 60.6125 46.4344 60.0437V56.9968C46.4344 56.4281 46.9625 55.9 47.5312 55.9H57.8906C58.4594 55.9 58.9875 56.4281 58.9875 56.9968V60.0437ZM38.4312 62.7656C36.4 62.7656 34.6938 61.1 34.6938 59.0281C34.6938 56.9562 36.3594 55.2906 38.4312 55.2906C40.5031 55.2906 42.1688 56.9562 42.1688 59.0281C42.0875 61.0593 40.4219 62.7656 38.4312 62.7656ZM37.2938 42.2906L38.8781 37.9843V37.9031C39.0406 37.05 39.4062 36.8874 39.8937 36.2374H65.2438C65.7719 36.9687 66.0969 37.0906 66.2594 37.9031L67.925 42.3312L68.4938 44.7281C68.3313 46.4749 66.2188 47.8562 64.4719 47.8562H40.6656C38.9187 47.8562 36.8062 46.4749 36.6437 44.7281L37.2938 42.2906ZM77.35 43.6718H72.475C72.2719 43.6718 72.0281 43.7531 71.825 43.8343L69.6312 37.2124C68.9 33.4343 66.2594 31.6062 63.0094 31.6062H42.3312C38.5531 31.6062 36.2781 34.0843 35.7094 37.2124L33.5156 43.8343C33.3125 43.6718 33.0688 43.6312 32.8656 43.6312H27.9906C27.2594 43.6312 26.6094 44.2 26.6094 45.0125V46.1906C26.6094 46.9218 27.1781 47.5718 27.9906 47.5718L29.8188 47.8562C29.25 49.0343 28.8844 50.3343 28.8844 51.8781L28.2344 59.7593C28.2344 59.9625 28.2344 60.2062 28.3156 60.4906C28.3156 60.6531 28.2344 60.775 28.2344 60.9375V70.3218C28.2344 71.6218 29.3313 72.7187 30.6313 72.7187H34.3687C35.6687 72.7187 36.7656 71.6218 36.7656 70.3218V67.275H68.6969V70.3218C68.6969 71.6218 69.7938 72.7187 71.0938 72.7187H74.8312C76.1312 72.7187 77.2281 71.6218 77.2281 70.3218V60.9375C77.2281 60.775 77.2281 60.6531 77.1469 60.4906C77.1469 60.2874 77.2281 60.0437 77.2281 59.7593L76.5781 51.8781C76.5781 50.3343 76.2125 49.0343 75.6437 47.8562L77.4719 47.5718C78.2031 47.5718 78.8531 47.0031 78.8531 46.1906V45.0125C78.7313 44.2406 78.1625 43.6718 77.35 43.6718Z" fill="black"/>
</svg>
